# xmcd
#
# Track frame offsets: 
#        150
#        20860
#        44812
#        60905
#        76735
#        97225
#        119657
#        142695
#        163130
#        183645
#        203382
#        216705
#
# Disc length: 3118 seconds
#
# Revision: 1
# Processed by: cddbd v1.5.2PL0 Copyright (c) Steve Scherf et al.
# Submitted via: ExactAudioCopy v0.99pb3
#
DISCID=b20c2c0c
DTITLE=The Klang - Coming Home
DYEAR=1900
DGENRE=Jazz
TTITLE0=Coming Home
TTITLE1=Keep That Same Old Feeling
TTITLE2=Total Recall
TTITLE3=There We Are
TTITLE4=The Way You Smile
TTITLE5=Spirit
TTITLE6=Waterdance
TTITLE7=The Night
TTITLE8=Lullaby
TTITLE9=To Be Continued
TTITLE10=Cloudy
TTITLE11=Song For Ann
EXTD=
EXTT0=
EXTT1=
EXTT2=
EXTT3=
EXTT4=
EXTT5=
EXTT6=
EXTT7=
EXTT8=
EXTT9=
EXTT10=
EXTT11=
PLAYORDER=
